<mxfile host="app.diagrams.net" modified="2024-01-20T07:57:39.925Z" agent="Mozilla/5.0 (Windows NT 10.0; Win64; x64) AppleWebKit/537.36 (KHTML, like Gecko) Chrome/120.0.0.0 Safari/537.36" etag="fLmL-BUFFh0A6rjbTI9v" version="22.1.21" type="device">
  <diagram name="Page-1" id="lV34PaSTPLkxO6FwmY2a">
    <mxGraphModel dx="1050" dy="530" grid="1" gridSize="10" guides="1" tooltips="1" connect="1" arrows="1" fold="1" page="1" pageScale="1" pageWidth="827" pageHeight="1169" math="0" shadow="0">
      <root>
        <mxCell id="0" />
        <mxCell id="1" parent="0" />
        <mxCell id="DoosNBV8i66LiiUVoqyL-1" value="User" style="rounded=0;whiteSpace=wrap;html=1;" vertex="1" parent="1">
          <mxGeometry x="180" y="160" width="120" height="60" as="geometry" />
        </mxCell>
        <mxCell id="DoosNBV8i66LiiUVoqyL-3" value="user id" style="ellipse;whiteSpace=wrap;html=1;" vertex="1" parent="1">
          <mxGeometry x="30" y="51.98" width="90" height="50" as="geometry" />
        </mxCell>
        <mxCell id="DoosNBV8i66LiiUVoqyL-4" value="" style="endArrow=none;html=1;rounded=0;entryX=1;entryY=1;entryDx=0;entryDy=0;exitX=0.43;exitY=-0.033;exitDx=0;exitDy=0;exitPerimeter=0;" edge="1" parent="1" target="DoosNBV8i66LiiUVoqyL-3">
          <mxGeometry width="50" height="50" relative="1" as="geometry">
            <mxPoint x="221.5999999999999" y="159.99999999999997" as="sourcePoint" />
            <mxPoint x="430" y="251.98" as="targetPoint" />
          </mxGeometry>
        </mxCell>
        <mxCell id="DoosNBV8i66LiiUVoqyL-5" value="User name" style="ellipse;whiteSpace=wrap;html=1;" vertex="1" parent="1">
          <mxGeometry x="108.4" y="22.97" width="90" height="50" as="geometry" />
        </mxCell>
        <mxCell id="DoosNBV8i66LiiUVoqyL-6" value="" style="endArrow=none;html=1;rounded=0;entryX=0.64;entryY=0.957;entryDx=0;entryDy=0;entryPerimeter=0;" edge="1" parent="1" target="DoosNBV8i66LiiUVoqyL-5" source="DoosNBV8i66LiiUVoqyL-1">
          <mxGeometry width="50" height="50" relative="1" as="geometry">
            <mxPoint x="299.9999999999999" y="130.98999999999998" as="sourcePoint" />
            <mxPoint x="508.4" y="222.97000000000003" as="targetPoint" />
          </mxGeometry>
        </mxCell>
        <mxCell id="DoosNBV8i66LiiUVoqyL-7" value="Password" style="ellipse;whiteSpace=wrap;html=1;" vertex="1" parent="1">
          <mxGeometry x="210" y="22.96999999999999" width="90" height="50" as="geometry" />
        </mxCell>
        <mxCell id="DoosNBV8i66LiiUVoqyL-8" value="" style="endArrow=none;html=1;rounded=0;entryX=0.5;entryY=1;entryDx=0;entryDy=0;exitX=0.423;exitY=0.02;exitDx=0;exitDy=0;exitPerimeter=0;" edge="1" parent="1" target="DoosNBV8i66LiiUVoqyL-7" source="DoosNBV8i66LiiUVoqyL-1">
          <mxGeometry width="50" height="50" relative="1" as="geometry">
            <mxPoint x="401.5999999999999" y="130.98999999999998" as="sourcePoint" />
            <mxPoint x="610" y="222.97000000000003" as="targetPoint" />
          </mxGeometry>
        </mxCell>
        <mxCell id="DoosNBV8i66LiiUVoqyL-9" value="Email" style="ellipse;whiteSpace=wrap;html=1;" vertex="1" parent="1">
          <mxGeometry x="300" y="22.96999999999999" width="90" height="50" as="geometry" />
        </mxCell>
        <mxCell id="DoosNBV8i66LiiUVoqyL-10" value="" style="endArrow=none;html=1;rounded=0;entryX=0.404;entryY=1.069;entryDx=0;entryDy=0;exitX=0.397;exitY=0.007;exitDx=0;exitDy=0;exitPerimeter=0;entryPerimeter=0;" edge="1" parent="1" target="DoosNBV8i66LiiUVoqyL-9" source="DoosNBV8i66LiiUVoqyL-1">
          <mxGeometry width="50" height="50" relative="1" as="geometry">
            <mxPoint x="491.5999999999999" y="130.98999999999998" as="sourcePoint" />
            <mxPoint x="700" y="222.97000000000003" as="targetPoint" />
          </mxGeometry>
        </mxCell>
        <mxCell id="DoosNBV8i66LiiUVoqyL-11" value="About" style="ellipse;whiteSpace=wrap;html=1;" vertex="1" parent="1">
          <mxGeometry x="390" y="39.99999999999999" width="90" height="50" as="geometry" />
        </mxCell>
        <mxCell id="DoosNBV8i66LiiUVoqyL-12" value="" style="endArrow=none;html=1;rounded=0;entryX=0;entryY=1;entryDx=0;entryDy=0;" edge="1" parent="1" target="DoosNBV8i66LiiUVoqyL-11">
          <mxGeometry width="50" height="50" relative="1" as="geometry">
            <mxPoint x="230" y="160" as="sourcePoint" />
            <mxPoint x="790" y="240.00000000000003" as="targetPoint" />
          </mxGeometry>
        </mxCell>
        <mxCell id="DoosNBV8i66LiiUVoqyL-13" value="Post" style="rounded=0;whiteSpace=wrap;html=1;" vertex="1" parent="1">
          <mxGeometry x="620" y="171.98" width="120" height="60" as="geometry" />
        </mxCell>
        <mxCell id="DoosNBV8i66LiiUVoqyL-14" value="Post id" style="ellipse;whiteSpace=wrap;html=1;" vertex="1" parent="1">
          <mxGeometry x="490" y="59.99999999999999" width="90" height="50" as="geometry" />
        </mxCell>
        <mxCell id="DoosNBV8i66LiiUVoqyL-15" value="" style="endArrow=none;html=1;rounded=0;entryX=1;entryY=1;entryDx=0;entryDy=0;exitX=0.43;exitY=-0.033;exitDx=0;exitDy=0;exitPerimeter=0;" edge="1" parent="1" target="DoosNBV8i66LiiUVoqyL-14">
          <mxGeometry width="50" height="50" relative="1" as="geometry">
            <mxPoint x="661.5999999999999" y="171.97999999999996" as="sourcePoint" />
            <mxPoint x="870" y="263.96000000000004" as="targetPoint" />
          </mxGeometry>
        </mxCell>
        <mxCell id="DoosNBV8i66LiiUVoqyL-16" value="" style="endArrow=none;html=1;rounded=0;entryX=0.64;entryY=0.957;entryDx=0;entryDy=0;entryPerimeter=0;" edge="1" parent="1" source="DoosNBV8i66LiiUVoqyL-13">
          <mxGeometry width="50" height="50" relative="1" as="geometry">
            <mxPoint x="739.9999999999999" y="142.96999999999997" as="sourcePoint" />
            <mxPoint x="606" y="82.98" as="targetPoint" />
          </mxGeometry>
        </mxCell>
        <mxCell id="DoosNBV8i66LiiUVoqyL-17" value="" style="endArrow=none;html=1;rounded=0;entryX=0.5;entryY=1;entryDx=0;entryDy=0;exitX=0.423;exitY=0.02;exitDx=0;exitDy=0;exitPerimeter=0;" edge="1" parent="1" source="DoosNBV8i66LiiUVoqyL-13">
          <mxGeometry width="50" height="50" relative="1" as="geometry">
            <mxPoint x="841.5999999999999" y="142.96999999999997" as="sourcePoint" />
            <mxPoint x="695" y="84.98" as="targetPoint" />
          </mxGeometry>
        </mxCell>
        <mxCell id="DoosNBV8i66LiiUVoqyL-18" value="" style="endArrow=none;html=1;rounded=0;entryX=0.404;entryY=1.069;entryDx=0;entryDy=0;exitX=0.397;exitY=0.007;exitDx=0;exitDy=0;exitPerimeter=0;entryPerimeter=0;" edge="1" parent="1" source="DoosNBV8i66LiiUVoqyL-13">
          <mxGeometry width="50" height="50" relative="1" as="geometry">
            <mxPoint x="931.5999999999999" y="142.96999999999997" as="sourcePoint" />
            <mxPoint x="776" y="87.98" as="targetPoint" />
          </mxGeometry>
        </mxCell>
        <mxCell id="DoosNBV8i66LiiUVoqyL-19" value="About" style="ellipse;whiteSpace=wrap;html=1;" vertex="1" parent="1">
          <mxGeometry x="830" y="51.97999999999999" width="90" height="50" as="geometry" />
        </mxCell>
        <mxCell id="DoosNBV8i66LiiUVoqyL-20" value="" style="endArrow=none;html=1;rounded=0;entryX=0;entryY=1;entryDx=0;entryDy=0;" edge="1" parent="1" target="DoosNBV8i66LiiUVoqyL-19">
          <mxGeometry width="50" height="50" relative="1" as="geometry">
            <mxPoint x="670" y="171.98" as="sourcePoint" />
            <mxPoint x="1230" y="251.98000000000002" as="targetPoint" />
          </mxGeometry>
        </mxCell>
        <mxCell id="DoosNBV8i66LiiUVoqyL-21" value="Post Desc" style="ellipse;whiteSpace=wrap;html=1;" vertex="1" parent="1">
          <mxGeometry x="570" y="40" width="90" height="48.02" as="geometry" />
        </mxCell>
        <mxCell id="DoosNBV8i66LiiUVoqyL-22" value="" style="ellipse;whiteSpace=wrap;html=1;" vertex="1" parent="1">
          <mxGeometry x="660" y="41.980000000000004" width="90" height="48.02" as="geometry" />
        </mxCell>
      </root>
    </mxGraphModel>
  </diagram>
</mxfile>
